<!DOCTYPE svg PUBLIC "-//W3C//DTD SVG 1.1//EN" "http://www.w3.org/Graphics/SVG/1.1/DTD/svg11.dtd">
<!-- Uploaded to: SVG Repo, www.svgrepo.com, Transformed by: SVG Repo Mixer Tools -->
<svg width="64px" height="64px" viewBox="0 -100.7 404.466 404.466" xmlns="http://www.w3.org/2000/svg" fill="#000000" stroke="#000000" stroke-width="0.00404466">
<g id="SVGRepo_bgCarrier" stroke-width="0"/>
<g id="SVGRepo_tracerCarrier" stroke-linecap="round" stroke-linejoin="round"/>
<g id="SVGRepo_iconCarrier">
<defs>
<style>.a{fill:#e9fa00;}.b{fill:#87cce3;}.c{fill:#000000;}</style>
</defs>
<path class="a" d="M372.816,166.953a43.61,43.61,0,0,0,15.7-7.111c4.128-3.007,6.667-7.26,9.63-15.26,3.922-10.59,5.05-23.314,2.7-36.872-.477-2.755-1.081-6.018-1.883-9.871-1.3-6.229-3.058-13.9-5.6-19.738-3.752-8.63-8.639-15.535-14.555-22.852-11.646-14.4-18.963-20.889-33.482-30.37-23.407-12.3-38.378-16.092-64.741-20.445s-78.848-1-104.444,6.667C147.5,19.68,124.593,35.545,97.482,60.434a21.816,21.816,0,0,1-10.665,5.277c-20.25,3.9-28.585,4.761-45.58,8.678-9.086,2.095-18.219,5.468-25.086,11.777-12.159,11.17-13.4,29.526-13.613,46.116a57.6,57.6,0,0,0,2.188,16.9c3.5,11.963,9.1,18.775,23.978,19.805l75.741.592c50.727,0,146.667-.888,197.63-.3Z"/>
<path class="a" d="M302.08,153.31c-8.138,0-20.153.013-20.153.013-6.667,0-133.334.445-156.787.32H106.469a36.2,36.2,0,0,1,1.813,11.349c0,1.572-.075,3.1-.21,4.585l192.278-.288c-.121-1.4-.188-2.827-.188-4.3a36.1,36.1,0,0,1,1.918-11.652Z"/>
<path class="b" d="M164.69,71.452c-19.589.426-38.351.674-49.91.513a1.774,1.774,0,0,1-1.28-2.98c7.739-8.221,14.48-16.722,26.2-24.551,14.3-9.545,33.112-17.889,52.334-22.555a127.5,127.5,0,0,1,37.822-4.555c-1.232,8.294-6.06,33.307-8.576,52.481C206.29,70.375,185.043,71.01,164.69,71.452Z"/>
<path class="a" d="M5.187,105.853C7.1,98.316,10.41,91.44,16.151,86.166a44.07,44.07,0,0,1,13.481-8.217c4.013.612,8.786,1.395,12.884,2.278a12.912,12.912,0,0,1,3.159.837c.977.492,2.307,1.537,1.7,3.37a73.479,73.479,0,0,1-7.955,17.1,11.129,11.129,0,0,1-6.611,5.092c-9.889,2.633-20.624,2.255-28.343,2.432Q4.786,107.438,5.187,105.853Z"/>
<path class="b" d="M232.813,69.339c1-7.913,2.482-17.543,3.939-27.085,1.36-8.9,2.7-17.73,3.6-25.012q12.238.138,24.419,1.392c12.1,1.24,24.17,3.31,35.68,7.25,17.734,6.072,42.32,16.929,53.622,31.884a1.157,1.157,0,0,1-.707,1.829c-22.727,4.368-86.643,7.856-111.664,9.266Z"/>
<path class="c" d="M45.057,83.8a66.745,66.745,0,0,1-5.028,11.85c-1.81,3.348-3.569,7.338-7.5,8.559-8.433,2.62-17.689,2.3-26.416,2.422-3.086.043-3.095,4.844,0,4.8,7.488-.106,14.977-.138,22.381-1.416,3.7-.639,7.315-1.427,10.231-3.94,2.781-2.4,4.488-6.117,6.15-9.324a72.285,72.285,0,0,0,4.811-11.675c.925-2.955-3.707-4.219-4.628-1.276Z"/>
<path class="c" d="M27.115,89.7c-.483,2.426-.576,5.029-1.539,7.335l.242-.574c-.057.132-.118.261-.186.388a2.4,2.4,0,0,0,4.145,2.422c1.353-2.519,1.419-5.545,1.967-8.3a2.567,2.567,0,0,0-.242-1.85,2.4,2.4,0,0,0-4.387.574Z"/>
<path class="a" d="M380.737,81.07A64.183,64.183,0,0,0,393.371,78.1a90.891,90.891,0,0,1,5.555,19.5c-.531.03-.888.053-.888.053a118.321,118.321,0,0,1-13.354.857,2.653,2.653,0,0,1-1.514-.376,2.528,2.528,0,0,1-.773-1.422c-1.251-4.609-2.406-9.414-3.755-13.745a1.366,1.366,0,0,1,1.132-1.772C380.08,81.16,380.4,81.117,380.737,81.07Z"/>
<path class="c" d="M108.07,171.982q16.923-.013,33.845-.1,19.707-.081,39.415-.179,20.677-.1,41.356-.167,19.836-.063,39.671-.059,17.106.014,34.213.144,1.89.018,3.78.038c3.09.033,3.092-4.767,0-4.8q-16.731-.18-33.463-.177-19.61-.029-39.218.039-20.673.059-41.346.159-19.922.09-39.844.183-17.286.073-34.571.111l-3.838,0c-3.088,0-3.094,4.8,0,4.8Z"/>
<path class="c" d="M28.7,166.59c-7.922-.6-14.889-3.359-18.775-10.619-4.969-9.282-5.23-20.1-4.831-30.357.384-9.828,1.421-20.2,6.1-29.036C16.4,86.746,25.991,81.235,36.372,78.147c9.239-2.749,18.891-4.353,28.374-6.02,4.822-.848,9.648-1.679,14.464-2.557,5.524-1.008,11.29-1.635,16.186-4.6a44.727,44.727,0,0,0,6.612-5.419q3.446-3.116,6.954-6.158c4.429-3.833,8.942-7.576,13.586-11.146a194.475,194.475,0,0,1,26.714-17.476,147.343,147.343,0,0,1,28.106-11.53A172.673,172.673,0,0,1,201,8.409,339.538,339.538,0,0,1,258.368,5a209.55,209.55,0,0,1,54.522,8.829,169.387,169.387,0,0,1,28.091,11.5,98.2,98.2,0,0,1,23.194,17.138,149.755,149.755,0,0,1,20.291,24.373A70.638,70.638,0,0,1,392.335,82a123.06,123.06,0,0,1,4.253,16.172c2.408,11.518,4.177,23.113,2.155,34.847a63.641,63.641,0,0,1-4.841,15.686c-1.757,3.834-3.946,7.257-7.465,9.678a41.609,41.609,0,0,1-14.259,6.255c-3.01.692-1.736,5.321,1.276,4.628,9.734-2.24,19.2-7.4,23.828-16.547a69.619,69.619,0,0,0,7.146-33.572,114.091,114.091,0,0,0-2.409-18.288,165.614,165.614,0,0,0-4.11-17.287c-3.522-11.361-10.2-21.138-17.619-30.3C373.984,45.5,367.254,38.111,359.364,31.9a118.083,118.083,0,0,0-12.819-9.1A135.691,135.691,0,0,0,331.1,15.392a166.1,166.1,0,0,0-28.683-9.26,238.477,238.477,0,0,0-29.768-5.11c-19.216-1.849-38.83-.979-58,.936-18.828,1.881-37.308,5.09-54.823,12.483-21.009,8.868-39.42,22.515-56.462,37.487C98.91,55.838,94.738,60.8,88.95,62.682a70.668,70.668,0,0,1-8.992,1.888q-4.263.788-8.532,1.536C61.972,67.771,52.519,69.4,43.148,71.5c-11.115,2.49-22.623,6.237-30.576,14.853C5.426,94.09,2.46,104.4,1.158,114.627c-1.433,11.253-1.992,23.462,1.05,34.48,2.139,7.748,5.913,15.4,13.434,19.12A35.065,35.065,0,0,0,28.7,171.39c3.082.232,3.067-4.569,0-4.8Z"/>
<path class="c" d="M164.69,69.052c-10.326.224-20.653.412-30.981.507q-6.408.06-12.815.053c-1.718,0-3.553.018-5.2-.034.033,0,.079.059.092.057.173-.021-.157.023-.02-.016-.271.076.113-.244-.015.006-.056.111-.125.164.008.008.413-.486,1.141-1.332,1.668-1.938A118.556,118.556,0,0,1,135.763,50.14a142.819,142.819,0,0,1,24.374-14.428,170.824,170.824,0,0,1,28.078-10.369,149.02,149.02,0,0,1,30.574-5.488q3.818-.224,7.644-.2c.156,0,.793.165.637.008a3.817,3.817,0,0,0-.1.629c-.07.42-.142.841-.213,1.262-.59,3.463-1.2,6.922-1.81,10.382-1.558,8.881-3.1,17.766-4.462,26.679q-.506,3.292-.973,6.592a6.562,6.562,0,0,1-.411,2.372c.612-.851.222-.1.206-.1a3.768,3.768,0,0,1-.734.027l-1.874.068q-6.767.243-13.533.454-15.39.484-30.784.849-3.844.092-7.69.175c-3.084.068-3.095,4.868,0,4.8q16.8-.366,33.6-.873,7.455-.225,14.91-.481,1.655-.058,3.31-.117a20.573,20.573,0,0,0,3.774-.224c2.787-.641,3.482-3,3.83-5.475,1.364-9.7,3-19.356,4.682-29,.709-4.069,1.43-8.135,2.136-12.2.267-1.538.547-3.076.787-4.619.394-2.529-.663-5.076-3.315-5.816a13.094,13.094,0,0,0-3.577-.184q-2.2.018-4.4.117-4.108.184-8.2.641a136.8,136.8,0,0,0-16.864,2.935,197.811,197.811,0,0,0-31.1,10.085,154.907,154.907,0,0,0-26.742,14.384,116.5,116.5,0,0,0-21.2,18.685,44.368,44.368,0,0,0-4.656,5.425,4.815,4.815,0,0,0,.85,6.017c1.635,1.523,3.941,1.245,6,1.258q3.183.02,6.366.011c10.389-.022,20.777-.184,31.164-.383q4.321-.082,8.641-.177C167.774,73.786,167.785,68.985,164.69,69.052Z"/>
<path class="c" d="M303.336,29.2a154.119,154.119,0,0,1,8.924,17.067c2.768,5.826,5.431,11.7,8.037,17.6a2.416,2.416,0,0,0,3.284.861,2.46,2.46,0,0,0,.861-3.284c-2.606-5.9-5.269-11.774-8.037-17.6a153.868,153.868,0,0,0-8.925-17.067c-1.66-2.594-5.816-.19-4.144,2.422Z"/>
<path class="c" d="M235.213,69.339c1.513-11.927,3.478-23.794,5.252-35.684q.673-4.512,1.309-9.028.3-2.164.587-4.329c.037-.28.081-.56.111-.841.133-1.247.059-.229,0-.238l-.712.442.981.018q.737.015,1.472.034,9.321.241,18.609,1.129c12.063,1.146,24.111,3.114,35.648,6.905a185.821,185.821,0,0,1,26.052,10.744c8.408,4.265,16.692,9.266,23.424,15.939q1.146,1.137,2.221,2.343.5.559.978,1.135.212.253.418.51c.54.669.319.8.8-.3.506-1.14.388-.84-.349-.7-.312.057-.625.114-.938.169q-1,.174-2,.335-2.1.338-4.2.626c-1.211.169-2.709.363-4.308.558-16.22,1.985-32.543,3.177-48.84,4.306-15.343,1.063-30.7,1.964-46.051,2.827l-3.979.224c-3.072.173-3.092,4.974,0,4.8,15.318-.863,30.636-1.739,45.944-2.772,17.222-1.162,34.469-2.388,51.614-4.426,3.389-.4,6.775-.842,10.148-1.365,1.358-.211,2.713-.436,4.064-.688a3.834,3.834,0,0,0,2.7-1.679c.983-1.574.427-3.2-.612-4.537-5.939-7.644-14.164-13.4-22.5-18.157a180.446,180.446,0,0,0-27.87-12.62,159.978,159.978,0,0,0-35.239-8.2q-9.771-1.212-19.617-1.677-2.328-.114-4.657-.187c-1.6-.051-3.5-.368-5.052.069-3.28.925-3.017,4.945-3.392,7.661-1.748,12.652-3.84,25.253-5.64,37.9q-.623,4.376-1.185,8.757a2.412,2.412,0,0,0,2.4,2.4,2.459,2.459,0,0,0,2.4-2.4Z"/>
<path class="c" d="M225.983,77.13c-1.1,7.739-2.1,15.456-2.434,23.271-.393,9.154-.587,18.315-.648,27.478q-.051,7.685-.041,15.37c0,3.089,4.8,3.094,4.8,0,0-9.111,0-18.224.191-27.334.164-7.928.3-15.909,1.036-23.81.428-4.583,1.075-9.143,1.724-13.7a2.481,2.481,0,0,0-1.676-2.953,2.417,2.417,0,0,0-2.952,1.677Z"/>
<path class="c" d="M116.946,82.475a83.1,83.1,0,0,0-4.217,22.63,213.185,213.185,0,0,0,.675,24.334c.363,4.535.862,9.059,1.531,13.559a2.416,2.416,0,0,0,2.952,1.677,2.463,2.463,0,0,0,1.677-2.953,207.425,207.425,0,0,1-1.992-23.285c-.253-7.3-.457-14.776.833-21.992a96.373,96.373,0,0,1,3.169-12.694c.954-2.946-3.679-4.208-4.628-1.276Z"/>
<path class="c" d="M125.14,156.043c7.99.042,15.981.024,23.971.015q18.692-.019,37.383-.069,20.652-.048,41.3-.109,17.382-.049,34.763-.1,9.348-.028,18.695-.053h.672c3.088,0,3.093-4.8,0-4.8-5.347,0-10.695.028-16.042.044l-33.328.1q-20.536.06-41.071.111-19.176.047-38.353.076c-8.719.012-17.439.028-26.158,0l-1.835-.007c-3.089-.017-3.093,4.783,0,4.8Z"/>
<path class="c" d="M324.057,75a140.145,140.145,0,0,1,4.921,14.969c1.623,5.549,3.188,11.128,4.491,16.762.215.933.427,1.868.6,2.81.033.183.05.373.093.553.074.314-.02-.682-.028-.2,0,.092.052.234.02.323a3.685,3.685,0,0,1,.655-1.445l1.7-.7a121.138,121.138,0,0,0-12.312.749,45.874,45.874,0,0,0-12.927,3.639,30.355,30.355,0,0,0-15.223,14.468,2.463,2.463,0,0,0,.861,3.283,2.422,2.422,0,0,0,3.284-.861,25.609,25.609,0,0,1,6.087-8.207,29.871,29.871,0,0,1,7.892-4.75,41.041,41.041,0,0,1,12.156-3.026c1.928-.193,3.864-.3,5.8-.365.935-.033,1.871-.058,2.806-.084,1.121-.031,2.408.11,3.272-.749,1.112-1.106.712-2.738.46-4.092-.311-1.674-.719-3.331-1.128-4.983-1.243-5.018-2.629-10-4.088-14.962a136.534,136.534,0,0,0-4.757-14.409,2.48,2.48,0,0,0-2.952-1.676A2.414,2.414,0,0,0,324.057,75Z"/>
<path class="c" d="M392.339,75.939a54.575,54.575,0,0,1-9.266,2.336q-1.038.188-2.08.348-.548.084-1.095.161c.107-.015.363-.051-.124.015a6.1,6.1,0,0,0-.91.147c-2.333.686-3.019,3.077-2.373,5.192,1.163,3.809,2.118,7.678,3.139,11.527.529,2,.974,4.176,3.171,4.946a13.138,13.138,0,0,0,4.637.3c3.543-.119,7.073-.5,10.6-.849a2.468,2.468,0,0,0,2.4-2.4,2.417,2.417,0,0,0-2.4-2.4c-2.65.259-5.3.533-7.956.711-1.314.088-2.63.156-3.946.166a7.076,7.076,0,0,0-1.772-.037c.092-.079-.6-.626.261.211.565.551.121.106.12-.017,0,.167-.021-.166-.034-.213-.071-.248-.135-.5-.2-.749-.889-3.313-1.717-6.643-2.65-9.944q-.333-1.176-.686-2.346a2.469,2.469,0,0,0-.162-.53c-.219-.35-.005.1-.064.3-.106.36-.51.5-.7.7-.267.063-.3.078-.1.045l.446-.059q2.04-.274,4.063-.643a53.879,53.879,0,0,0,8.957-2.28,2.464,2.464,0,0,0,1.676-2.952,2.42,2.42,0,0,0-2.952-1.677Z"/>
<path class="c" d="M217.57,88.765c-.042-2.04.248-4.336-1.221-5.973a4.711,4.711,0,0,0-3.482-1.506c-1.291-.039-2.589,0-3.88,0H197.148c-.336,0-.675-.013-1.011,0a4.605,4.605,0,0,0-4.3,3.094,8.059,8.059,0,0,0-.2,2.8,10.256,10.256,0,0,0,.317,3.133,4.6,4.6,0,0,0,4.263,3.014c3.212.123,6.452,0,9.666,0h6.14c.339,0,.682.015,1.021,0a4.625,4.625,0,0,0,4.52-4.558,2.4,2.4,0,1,0-4.8,0c.017-.352.462-.143.092-.242a5.348,5.348,0,0,0-1.239,0h-14.5c-.108,0-.821-.084-.887,0,0-.006.132.09.211.139.12.075-.047.416.036.023a7.291,7.291,0,0,0-.044-1.509c-.006-.206.056-1.58-.141-1.153-.062.133-.2-.018-.124.063.09.1.836,0,.97,0H212.07a3.565,3.565,0,0,0,.906,0c-.071.106-.364-.294-.268-.326a21.272,21.272,0,0,0,.062,3C212.833,91.849,217.633,91.86,217.57,88.765Z"/>
<path class="c" d="M318.607,88.765c-.042-2.04.248-4.336-1.221-5.973a4.711,4.711,0,0,0-3.482-1.506c-1.29-.039-2.589,0-3.88,0H298.185c-.336,0-.675-.013-1.011,0a4.605,4.605,0,0,0-4.3,3.094,8.059,8.059,0,0,0-.2,2.8A10.256,10.256,0,0,0,293,90.309a4.6,4.6,0,0,0,4.263,3.014c3.212.123,6.453,0,9.666,0h6.14c.339,0,.682.015,1.021,0a4.625,4.625,0,0,0,4.52-4.558,2.4,2.4,0,0,0-4.8,0c.017-.352.462-.143.092-.242a5.348,5.348,0,0,0-1.239,0h-14.5c-.108,0-.821-.084-.887,0,0-.006.132.09.211.139.12.075-.047.416.036.023a7.291,7.291,0,0,0-.044-1.509c-.006-.206.056-1.58-.141-1.153-.062.133-.2-.018-.124.063.09.1.836,0,.97,0h14.922a3.565,3.565,0,0,0,.906,0c-.071.106-.364-.294-.268-.326a21.272,21.272,0,0,0,.062,3C313.87,91.849,318.67,91.86,318.607,88.765Z"/>
<path class="c" d="M139.976,76.162a20.264,20.264,0,0,0-2.374,2.457,18.622,18.622,0,0,0-1.335,1.791,4.868,4.868,0,0,0-.918,2.467,2.783,2.783,0,0,0,1.361,2.416,4.632,4.632,0,0,0,1.883.491c.655.083,1.313.139,1.972.174.733.038,1.468.051,2.2.048a10.683,10.683,0,0,0,1.409-.056,2.843,2.843,0,0,0,2.167-1.412A10.306,10.306,0,0,0,147,81.77q.26-1.224.629-2.421A2.425,2.425,0,0,0,145.95,76.4,2.451,2.451,0,0,0,143,78.073c-.231.755-.434,1.519-.6,2.291q-.121.564-.222,1.131a7.667,7.667,0,0,1-.218,1.193l.242-.573-.058.1.375-.486-.067.063.485-.375-.093.052.573-.242a.522.522,0,0,1-.194.051l.638-.086a36.409,36.409,0,0,1-5.385-.224l.638.086a2.542,2.542,0,0,1-.426-.081l.573.242a.608.608,0,0,1-.164-.094l.486.375-.065-.066.376.486-.047-.08.242.574-.027-.113.086.638.007-.118-.086.639a2.309,2.309,0,0,1,.1-.307l-.242.573a9.017,9.017,0,0,1,1.163-1.845l-.375.485a20.2,20.2,0,0,1,2.654-2.807,2.411,2.411,0,0,0,0-3.394,2.459,2.459,0,0,0-3.394,0Z"/>
<path class="c" d="M145.312,78.711a28.973,28.973,0,0,0-.972,4.333.8.8,0,0,1-.127.383.541.541,0,0,1-.355.166,34.231,34.231,0,0,1-5.625-.257.571.571,0,0,1-.462-.287.618.618,0,0,1,.054-.462,16.387,16.387,0,0,1,3.848-4.728Z"/>
<path class="a" d="M136.269,62.025a8.346,8.346,0,0,1,1.454-5.068,10.186,10.186,0,0,1,6.07-3.33l2.868-.1a4.671,4.671,0,0,1,3.9,2.906c.628,2.359.3,7.726.36,8.771a74.369,74.369,0,0,1-.27,10.511c-.165,1.436-1.148,2.959-3.652,2.44s-6.141-.991-7.286-2.372a13.48,13.48,0,0,1-2.268-5.627A59.007,59.007,0,0,1,136.269,62.025Z"/>
<path class="c" d="M138.669,62.025c.04-1.939.549-3.562,1.97-4.565a8.883,8.883,0,0,1,2.592-1.285A3.636,3.636,0,0,1,144.646,56c1.37-.047,2.372-.368,3.323.7a2.163,2.163,0,0,1,.465,1.423c.1,1.06.121,2.124.124,3.188.012,3.589.123,7.2-.032,10.785-.046,1.065-.1,2.2-.221,3.222-.02.162-.084.318-.119.476.089-.393-.156.243-.032.051s.325-.02-.091.043c.238-.036-.31-.031-.282-.031a15.43,15.43,0,0,1-2.888-.554,12.523,12.523,0,0,1-2.958-.838c-.453-.225-.34-.151-.58-.483a6.765,6.765,0,0,1-.844-1.7,24.666,24.666,0,0,1-.921-3.631,37.362,37.362,0,0,1-.921-6.624c-.025-3.088-4.825-3.095-4.8,0a44.649,44.649,0,0,0,1.093,7.9c.549,2.859,1.377,6.452,3.879,8.259,2.171,1.568,5.349,1.95,7.926,2.356a5.146,5.146,0,0,0,6.2-4.185c.826-4.848.392-9.976.39-14.882,0-2.627.112-5.667-1.661-7.79a7.289,7.289,0,0,0-6.233-2.513,13,13,0,0,0-7.248,2.146c-3,2.032-4.275,5.145-4.348,8.709C133.807,65.115,138.607,65.114,138.669,62.025Z"/>
<path class="c" d="M49.685,85.072a4.9,4.9,0,0,0-1.55-5.229c-1.578-1.307-3.471-1.612-5.417-2.023-3.878-.82-7.792-1.466-11.709-2.07a2.475,2.475,0,0,0-2.952,1.676,2.417,2.417,0,0,0,1.676,2.952c3.318.512,6.631,1.057,9.925,1.706A29.587,29.587,0,0,1,44.351,83.1a3.481,3.481,0,0,1,.491.251c.051.029.368.265.14.082s.083.094.122.131c.091.1.092.094.006-.016s-.085-.117-.01,0,.072.113.019-.016-.047-.134-.005,0,.041.134.02,0-.015-.135-.011.016c-.071.428.177-.595-.066.252a2.4,2.4,0,1,0,4.628,1.276Z"/>
<path class="c" d="M73.054,129.982c-20.829,0-35.226,16.132-35.226,35.01,0,21.852,13.626,35.666,35.227,35.666,22.1,0,35.227-13.814,35.227-35.666C108.282,145.986,93.81,129.982,73.054,129.982Z"/>
<path class="c" d="M335.387,129.982c-20.828,0-35.225,16.132-35.225,35.01,0,21.852,13.626,35.666,35.227,35.666,22.1,0,35.227-13.814,35.227-35.666C370.616,145.986,356.143,129.982,335.387,129.982Z"/>
<path class="c" d="M73.054,127.582a38.27,38.27,0,0,0-23.45,7.86,36.911,36.911,0,0,0-12.73,19.038c-4.125,14.6.14,32.2,12.55,41.487,6,4.492,13.463,6.593,20.874,7.014,7.8.442,15.921-.836,22.842-4.6,13.424-7.293,19.086-23.414,17.249-38.048a37.722,37.722,0,0,0-9.912-21.332,36.684,36.684,0,0,0-20.72-10.864,43.76,43.76,0,0,0-6.7-.559c-3.089-.014-3.093,4.786,0,4.8a33.433,33.433,0,0,1,20.512,6.791,32.2,32.2,0,0,1,11.08,16.692,39.092,39.092,0,0,1-.353,21.06,28.872,28.872,0,0,1-9.778,14.869,33.164,33.164,0,0,1-18.331,6.368c-6.908.431-14.121-.519-20.225-3.739a28.114,28.114,0,0,1-12.406-13.035,38.772,38.772,0,0,1-3.091-20.535A31.969,31.969,0,0,1,67.438,132.8a35.536,35.536,0,0,1,5.616-.419C76.142,132.368,76.148,127.568,73.054,127.582Z"/>
<path class="a" d="M73.055,152.891A12.149,12.149,0,0,0,60.665,165.2c0,7.686,4.793,12.545,12.39,12.545,7.775,0,12.39-4.859,12.39-12.545A12.138,12.138,0,0,0,73.055,152.891Z"/>
<path class="c" d="M335.387,127.582a38.272,38.272,0,0,0-23.45,7.86,36.915,36.915,0,0,0-12.729,19.038c-4.126,14.6.14,32.2,12.549,41.487,6,4.492,13.464,6.593,20.875,7.014,7.8.442,15.921-.836,22.841-4.6,13.424-7.293,19.086-23.414,17.249-38.048a37.722,37.722,0,0,0-9.912-21.332,36.678,36.678,0,0,0-20.72-10.864,43.76,43.76,0,0,0-6.7-.559c-3.089-.014-3.093,4.786,0,4.8a33.433,33.433,0,0,1,20.512,6.791,32.2,32.2,0,0,1,11.08,16.692,39.1,39.1,0,0,1-.352,21.06,28.878,28.878,0,0,1-9.778,14.869,33.17,33.17,0,0,1-18.332,6.368c-6.907.431-14.121-.519-20.225-3.739a28.114,28.114,0,0,1-12.406-13.035,38.772,38.772,0,0,1-3.091-20.535A31.969,31.969,0,0,1,329.771,132.8a35.545,35.545,0,0,1,5.616-.419C338.475,132.368,338.482,127.568,335.387,127.582Z"/>
<path class="a" d="M335.388,152.891A12.148,12.148,0,0,0,323,165.2c0,7.686,4.792,12.545,12.39,12.545,7.774,0,12.39-4.859,12.39-12.545A12.139,12.139,0,0,0,335.388,152.891Z"/>
</g>
</svg>